<?xml version="1.0" encoding="UTF-8"?>
<svg id="Layer_3" data-name="Layer 3" xmlns="http://www.w3.org/2000/svg" viewBox="0 0 714.72 247.28">
  <rect x="282.72" width="432" height="109.09" fill="#10182a"/>
  <g>
    <path d="M301.6,79.82l9.78-11.55c2.85,3.54,5.54,5.31,8.55,5.31,3.77,0,5.85-2.31,5.85-6.7v-20.48h-18.33v-13.71h36.27v33.11c0,14.78-7.78,22.02-22.25,22.02-8.39,0-15.4-2.77-19.86-8.01Z" fill="#e6e7e8"/>
    <path d="M397.15,77.2h-20.48l-3.62,9.39h-18.48l23.56-53.9h17.86l23.56,53.9h-18.79l-3.62-9.39ZM392.15,64.11l-5.24-13.55-5.24,13.55h10.47Z" fill="#e6e7e8"/>
    <path d="M429.11,59.65c0-16.55,12.71-28.18,30.03-28.18,10.55,0,18.86,3.85,24.18,10.78l-11.47,10.24c-3.16-4-6.93-6.31-11.78-6.31-7.55,0-12.63,5.24-12.63,13.47s5.08,13.47,12.63,13.47c4.85,0,8.62-2.31,11.78-6.31l11.47,10.24c-5.31,6.93-13.63,10.78-24.18,10.78-17.32,0-30.03-11.63-30.03-28.18Z" fill="#e6e7e8"/>
    <path d="M496.87,62.34v-29.64h18.17v29.1c0,8.24,3.16,11.32,8.24,11.32s8.24-3.08,8.24-11.32v-29.1h17.86v29.64c0,16.17-9.7,25.49-26.25,25.49s-26.26-9.32-26.26-25.49Z" fill="#e6e7e8"/>
    <path d="M620.38,71.74c0,9.39-7.93,14.86-22.79,14.86h-30.34v-53.9h28.8c14.86,0,21.79,5.93,21.79,14.09,0,5-2.54,9.16-7.47,11.63,6.31,2.31,10.01,6.93,10.01,13.32ZM585.11,45.4v8.01h8.47c4.08,0,5.93-1.39,5.93-4s-1.85-4-5.93-4h-8.47ZM602.05,69.66c0-2.77-2-4.23-6-4.23h-10.93v8.47h10.93c4,0,6-1.46,6-4.23Z" fill="#e6e7e8"/>
    <path d="M673.04,77.2h-20.48l-3.62,9.39h-18.48l23.56-53.9h17.86l23.56,53.9h-18.79l-3.62-9.39ZM668.04,64.11l-5.24-13.55-5.24,13.55h10.47Z" fill="#e6e7e8"/>
  </g>
  <g>
    <path d="M344.22,127.78l-22.32,50.4h-5.26l-22.32-50.4h5.76l19.3,43.78,19.44-43.78h5.4Z" fill="#10182a"/>
    <path d="M365.89,127.78h5.33v50.4h-5.33v-50.4Z" fill="#10182a"/>
    <path d="M397.21,172.07l2.09-4.1c3.6,3.53,10.01,6.12,16.63,6.12,9.43,0,13.54-3.96,13.54-8.93,0-13.83-31.03-5.33-31.03-23.98,0-7.42,5.76-13.83,18.58-13.83,5.69,0,11.59,1.66,15.63,4.46l-1.8,4.25c-4.32-2.81-9.36-4.18-13.83-4.18-9.22,0-13.32,4.1-13.32,9.14,0,13.83,31.04,5.47,31.04,23.83,0,7.42-5.9,13.75-18.79,13.75-7.56,0-14.98-2.66-18.72-6.55Z" fill="#10182a"/>
    <path d="M460.28,156.66v-28.87h5.33v28.66c0,11.95,5.62,17.43,15.41,17.43s15.48-5.47,15.48-17.43v-28.66h5.18v28.87c0,14.47-7.78,21.96-20.67,21.96s-20.74-7.49-20.74-21.96Z" fill="#10182a"/>
    <path d="M562.66,164.72h-28.08l-6.05,13.47h-5.54l23.04-50.4h5.26l23.04,50.4h-5.62l-6.05-13.47ZM560.72,160.4l-12.1-27.07-12.1,27.07h24.19Z" fill="#10182a"/>
    <path d="M597.08,127.78h5.33v45.8h28.23v4.61h-33.56v-50.4Z" fill="#10182a"/>
    <path d="M648.48,172.07l2.09-4.1c3.6,3.53,10.01,6.12,16.63,6.12,9.43,0,13.54-3.96,13.54-8.93,0-13.83-31.04-5.33-31.04-23.98,0-7.42,5.76-13.83,18.58-13.83,5.69,0,11.59,1.66,15.62,4.46l-1.8,4.25c-4.32-2.81-9.36-4.18-13.83-4.18-9.22,0-13.32,4.1-13.32,9.14,0,13.83,31.04,5.47,31.04,23.83,0,7.42-5.91,13.75-18.79,13.75-7.56,0-14.98-2.66-18.72-6.55Z" fill="#10182a"/>
  </g>
  <g>
    <path d="M65.28,105.39l-38.79,13.31,38.79,13.31v21.76L0,130.09v-22.79l65.28-23.68v21.76Z" fill="#4abaeb"/>
    <path d="M129.41,55.72h25.6l-42.24,120.58h-25.6l42.24-120.58Z" fill="#4abaeb"/>
    <path d="M240.9,107.31v22.79l-65.28,23.68v-21.76l38.79-13.31-38.79-13.31v-21.76l65.28,23.68Z" fill="#4abaeb"/>
  </g>
  <g>
    <path d="M580.83,196.88l-16.99,50.4h-5.62l-14.76-42.99-14.83,42.99h-5.54l-16.99-50.4h5.47l14.54,43.35,15.05-43.35h4.97l14.83,43.56,14.76-43.56h5.11Z" fill="#231f20"/>
    <path d="M640.58,242.68v4.61h-35.64v-50.4h34.56v4.61h-29.23v17.93h26.07v4.54h-26.07v18.72h30.31Z" fill="#231f20"/>
    <path d="M709.63,233.82c0,8.57-6.34,13.46-18.94,13.46h-23.19v-50.4h21.75c11.23,0,17.71,4.75,17.71,12.96,0,5.76-3.1,9.58-7.7,11.45,6.48,1.44,10.37,5.69,10.37,12.53ZM672.84,201.27v18.29h16.06c8.06,0,12.75-3.1,12.75-9.14s-4.68-9.14-12.75-9.14h-16.06ZM704.3,233.39c0-6.55-4.82-9.43-13.68-9.43h-17.79v18.94h17.79c8.86,0,13.68-2.88,13.68-9.5Z" fill="#231f20"/>
  </g>
</svg>